<svg width="24" height="24" viewBox="0 0 24 24" fill="none" xmlns="http://www.w3.org/2000/svg">
<path d="M17.4805 17.4804C15.8979 18.446 14.0375 19 11.9999 19C7.33597 19 3.60008 16.0974 1.99994 12C2.90105 9.69259 4.47949 7.76406 6.51956 6.51944C8 5.61624 9.14666 5.25779 10.7302 5.07319C11.1448 5.02485 11.5684 5 11.9999 5C16.6639 5 20.3998 7.90264 21.9999 12C21.6053 13.0104 21.0809 13.9482 20.4446 14.7877C19.5 16.0341 18.5 17 17.5 17.5M11.9999 15C10.3431 15 8.99994 13.6569 8.99994 12C8.99994 11.1715 9.33576 10.4215 9.87871 9.87859C10.4191 9.41906 12 8.5 13.5 9.5C15 10.5 15.5 12.5 14.1214 14.1212C13.5785 14.6642 12.8284 15 11.9999 15Z" stroke="#808185" stroke-width="1.5" stroke-linecap="round" stroke-linejoin="round"/>
</svg>
